<svg width="364" height="291" viewBox="0 0 364 291" fill="none" xmlns="http://www.w3.org/2000/svg">
<path d="M237.23 217.149C237.23 210.673 234.71 204.585 230.131 200.012C226.999 196.874 223.189 194.881 219.185 193.827L231.906 181.1C236.485 176.526 239.005 170.438 239.005 163.969C239.005 157.494 236.485 151.412 231.906 146.839C227.332 142.259 221.244 139.739 214.775 139.739C208.3 139.739 202.218 142.259 197.638 146.839L186.704 157.773C185.626 153.69 183.579 149.91 180.507 146.839C175.928 142.259 169.846 139.739 163.37 139.739C156.901 139.739 150.813 142.259 146.24 146.839L131.018 162.061C129.939 157.972 127.892 154.192 124.82 151.121C120.247 146.542 114.165 144.022 107.69 144.022C101.215 144.022 95.1325 146.542 90.5595 151.121L47.5936 194.081H6.05727C2.71381 194.081 0 196.795 0 200.138C0 203.482 2.71381 206.195 6.05727 206.195H38.283C34.8664 214.973 36.5871 225.646 43.438 232.503C50.9676 240.02 62.204 241.45 71.2541 236.991C72.0839 241.692 74.2284 246.162 77.711 249.64C85.1802 257.103 96.3073 258.568 105.328 254.231C106.23 258.95 108.501 263.299 111.973 266.77C119.442 274.233 130.575 275.705 139.595 271.362C140.497 276.086 142.769 280.429 146.24 283.901C150.814 288.48 156.901 291 163.37 291C169.846 291 175.928 288.48 180.507 283.901L230.13 234.278C234.71 229.705 237.23 223.618 237.23 217.149ZM52.004 223.939C49.7203 221.649 48.4603 218.609 48.4603 215.374C48.4603 212.133 49.7203 209.092 52.004 206.802L54.3849 204.421L99.1255 159.686C101.416 157.396 104.456 156.137 107.691 156.137C110.926 156.137 113.967 157.397 116.256 159.686C120.83 164.266 120.83 172.244 116.256 176.817L69.1408 223.938C64.4152 228.658 56.7288 228.658 52.004 223.939ZM86.2769 241.076C83.9869 238.786 82.7269 235.739 82.7269 232.504C82.7269 229.269 83.9869 226.228 86.2769 223.939L154.806 155.405C157.096 153.115 160.136 151.855 163.371 151.855C166.612 151.855 169.653 153.115 171.943 155.405C176.516 159.978 176.516 167.962 171.943 172.535L145.289 199.188L111.973 232.504C111.967 232.511 111.967 232.511 111.961 232.516L103.408 241.076C98.6832 245.794 90.9961 245.794 86.2769 241.076ZM120.539 258.206C118.255 255.916 116.995 252.876 116.995 249.635C116.995 246.406 118.249 243.365 120.526 241.082L153.855 207.753L206.21 155.405C208.494 153.115 211.535 151.855 214.775 151.855C218.01 151.855 221.051 153.115 223.34 155.405C227.914 159.978 227.914 167.962 223.34 172.535L195.881 200C195.875 200 195.869 200.006 195.863 200.012L171.051 224.824L137.674 258.201C132.951 262.925 125.263 262.925 120.539 258.206ZM163.371 278.887C160.136 278.887 157.095 277.627 154.806 275.337C152.522 273.047 151.262 270.006 151.262 266.772C151.262 263.531 152.522 260.49 154.806 258.206L158.301 254.711L204.454 208.558C209.179 203.858 216.847 203.858 221.566 208.577C226.14 213.151 226.146 221.134 221.566 225.714L171.943 275.337C169.653 277.627 166.612 278.887 163.371 278.887Z" fill="#212121"/>
<path d="M151.437 24.6467C154.781 24.6467 157.495 21.9393 157.495 18.5894C157.495 15.246 154.781 12.5321 151.437 12.5321C107.654 12.5321 81.8488 30.8076 66.4327 41.7296C61.9321 44.9154 56.3348 48.8765 54.5176 48.8765L6.05727 48.8765C2.71381 48.8765 0 51.5903 0 54.9337C0 58.2836 2.71381 60.991 6.05727 60.991L54.5176 60.991C60.1873 60.991 65.7483 57.0598 73.4355 51.608C88.5975 40.8749 111.507 24.6467 151.437 24.6467Z" fill="#212121"/>
<path d="M339.221 200.139C339.221 203.482 341.935 206.196 345.278 206.196H357.393C360.737 206.196 363.451 203.482 363.451 200.139C363.451 196.795 360.737 194.082 357.393 194.082H345.278C341.935 194.082 339.221 196.795 339.221 200.139Z" fill="#212121"/>
<path d="M158.513 39.4638C149.015 53.7108 123.064 98.4578 121.786 100.687C119.768 104.733 120.047 109.228 122.591 113.335C128.062 122.191 143.078 127.625 151.438 127.625C163.074 127.625 170.149 119.459 177.636 110.809C180.229 107.81 182.919 104.715 186.008 101.62L216.296 71.3317C218.307 69.3264 220.203 67.431 220.772 67.1705C221.111 67.0612 222.401 67.0491 223.668 67.0491C227.496 68.4788 240.289 79.667 249.933 89.2984L310.689 156.119C312.422 157.881 314.99 161.601 314.99 163.969V218.487C314.99 225.168 309.557 230.602 302.875 230.602C296.193 230.602 290.76 225.169 290.76 218.487V176.084C290.76 167.761 283.727 160.492 282.927 159.686L240.525 117.284C238.157 114.922 234.328 114.922 231.96 117.284C229.591 119.653 229.591 123.487 231.96 125.849L274.344 168.234C276.077 169.996 278.645 173.716 278.645 176.084V218.487V236.659C278.645 243.34 273.212 248.774 266.53 248.774C259.849 248.774 254.415 243.341 254.415 236.659L254.415 188.199C254.415 184.855 251.701 182.142 248.357 182.142C245.014 182.142 242.3 184.855 242.3 188.199V236.659V254.832C242.3 261.513 236.867 266.947 230.185 266.947C227.193 266.947 224.327 265.851 222.11 263.864C219.614 261.629 215.786 261.841 213.551 264.33C211.315 266.826 211.533 270.655 214.023 272.884C218.469 276.869 224.206 279.062 230.185 279.062C242.676 279.062 252.864 269.534 254.161 257.382C257.795 259.563 261.993 260.89 266.53 260.89C279.021 260.89 289.209 251.361 290.506 239.21C294.14 241.39 298.338 242.717 302.875 242.717C316.238 242.717 327.105 231.85 327.105 218.487V163.97C327.105 155.647 320.072 148.378 319.472 147.778L258.697 80.939C232.692 54.9339 226.247 54.9339 224.127 54.9339C216.088 54.9339 214.574 55.9213 207.729 62.7665L177.441 93.0543C174.037 96.4524 171.087 99.869 168.476 102.88C161.286 111.179 157.264 115.509 151.437 115.509C143.792 115.509 132.616 108.991 132.447 106.435C132.713 105.975 159.299 60.1194 168.591 46.1812C179.034 30.5167 195.475 12.5315 230.184 12.5315C256.183 12.5315 291.432 32.9756 314.753 46.5021C331.417 56.1697 339.674 60.8158 345.277 60.8158L357.392 60.8158C360.735 60.8158 363.449 58.102 363.449 54.7585C363.449 51.4151 360.735 48.7013 357.392 48.7013L345.343 48.7013C342.266 48.4528 330.878 41.8504 320.835 36.0231C294.927 21.0002 259.448 0.417009 230.184 0.417009C189.273 0.417009 169.689 22.7025 158.513 39.4638Z" fill="#212121"/>
</svg>
