<svg width="191" height="280" viewBox="0 0 191 280" fill="none" xmlns="http://www.w3.org/2000/svg">
<path d="M71.3984 41.4961C71.3984 26.9128 75.1094 16.3984 82.5312 9.95312C90.1484 3.3776 102.355 0.0898438 119.152 0.0898438H125.109V70.3047C125.109 100.578 116.451 119.979 99.1328 128.508C93.0781 131.503 85.819 133 77.3555 133H71.3984V41.4961ZM48.3516 133C32.0104 133 19.8359 127.303 11.8281 115.91C4.40625 105.363 0.695312 90.1615 0.695312 70.3047V0.0898438H6.65234C23.4492 0.0898438 35.6562 3.3776 43.2734 9.95312C50.6953 16.3984 54.4062 26.9128 54.4062 41.4961V133H48.3516ZM138.332 0.0898438H190.871V133H138.332V0.0898438ZM71.3008 147.09H80.0898C104.048 147.09 118.339 155.195 122.961 171.406C124.523 176.745 125.305 182.865 125.305 189.766V280H71.3008V147.09ZM0.402344 147.09H52.9414V280H0.402344V147.09ZM138.332 147.09H190.871V280H138.332V147.09Z" fill="#212121"/>
</svg>
