<svg width="281" height="178" viewBox="0 0 281 178" fill="none" xmlns="http://www.w3.org/2000/svg">
<path d="M1.85 125.623C1.75933 125.476 1.714 125.351 1.714 125.249C1.714 125.102 1.78767 124.989 1.935 124.909C2.003 124.841 2.09367 124.807 2.207 124.807C2.343 124.807 2.46767 124.864 2.581 124.977C3.24967 125.861 4.13933 126.303 5.25 126.303C5.794 126.303 6.26433 126.179 6.661 125.929C7.069 125.669 7.273 125.295 7.273 124.807C7.273 124.331 7.086 123.974 6.712 123.736C6.338 123.498 5.81667 123.294 5.148 123.124C4.20733 122.886 3.47067 122.58 2.938 122.206C2.40533 121.821 2.139 121.26 2.139 120.523C2.139 120.059 2.26933 119.645 2.53 119.282C2.79067 118.908 3.142 118.619 3.584 118.415C4.03733 118.211 4.54733 118.109 5.114 118.109C5.60133 118.109 6.08867 118.206 6.576 118.398C7.07467 118.58 7.49967 118.874 7.851 119.282C7.953 119.362 8.004 119.475 8.004 119.622C8.004 119.758 7.94733 119.877 7.834 119.979C7.75467 120.047 7.65267 120.081 7.528 120.081C7.41467 120.081 7.31267 120.036 7.222 119.945C6.95 119.639 6.627 119.407 6.253 119.248C5.879 119.09 5.47667 119.01 5.046 119.01C4.51333 119.01 4.05433 119.135 3.669 119.384C3.295 119.634 3.108 120.008 3.108 120.506C3.13067 120.96 3.33467 121.305 3.72 121.543C4.11667 121.781 4.69467 121.997 5.454 122.189C6.04333 122.337 6.53067 122.501 6.916 122.682C7.30133 122.864 7.613 123.119 7.851 123.447C8.10033 123.776 8.225 124.212 8.225 124.756C8.225 125.493 7.93033 126.082 7.341 126.524C6.75167 126.955 6.02067 127.17 5.148 127.17C3.76533 127.17 2.666 126.655 1.85 125.623ZM17.6558 122.155C17.6558 122.291 17.6048 122.41 17.5028 122.512C17.4008 122.603 17.2818 122.648 17.1458 122.648H10.7198C10.7198 123.328 10.8558 123.94 11.1278 124.484C11.4111 125.017 11.8078 125.442 12.3178 125.759C12.8391 126.065 13.4511 126.218 14.1538 126.218C14.6978 126.218 15.1851 126.105 15.6158 125.878C16.0464 125.652 16.3921 125.363 16.6528 125.011C16.7774 124.909 16.8964 124.858 17.0098 124.858C17.1231 124.858 17.2251 124.904 17.3158 124.994C17.4064 125.085 17.4518 125.187 17.4518 125.3C17.4518 125.425 17.3951 125.544 17.2818 125.657C16.9191 126.099 16.4601 126.462 15.9048 126.745C15.3608 127.029 14.7828 127.17 14.1708 127.17C13.2981 127.17 12.5274 126.983 11.8588 126.609C11.1901 126.235 10.6688 125.714 10.2948 125.045C9.92075 124.365 9.73375 123.583 9.73375 122.699C9.73375 121.77 9.91508 120.96 10.2778 120.268C10.6518 119.566 11.1448 119.033 11.7568 118.67C12.3688 118.296 13.0204 118.109 13.7118 118.109C14.3918 118.109 15.0264 118.268 15.6158 118.585C16.2164 118.903 16.7038 119.367 17.0778 119.979C17.4518 120.591 17.6444 121.317 17.6558 122.155ZM13.7118 119.095C13.0544 119.095 12.4424 119.322 11.8758 119.775C11.3204 120.229 10.9634 120.88 10.8048 121.73H16.6018V121.594C16.5451 121.084 16.3751 120.642 16.0918 120.268C15.8084 119.883 15.4514 119.594 15.0208 119.401C14.6014 119.197 14.1651 119.095 13.7118 119.095ZM23.515 118.109C24.0477 118.109 24.5407 118.172 24.994 118.296C25.4587 118.41 25.827 118.568 26.099 118.772C26.3824 118.976 26.524 119.197 26.524 119.435C26.524 119.56 26.4787 119.673 26.388 119.775C26.3087 119.877 26.2067 119.928 26.082 119.928C25.9687 119.928 25.8724 119.906 25.793 119.86C25.725 119.815 25.6457 119.747 25.555 119.656C25.4077 119.509 25.266 119.401 25.13 119.333C24.96 119.254 24.7334 119.192 24.45 119.146C24.178 119.09 23.8834 119.061 23.566 119.061C22.9427 119.061 22.3704 119.22 21.849 119.537C21.339 119.855 20.9367 120.285 20.642 120.829C20.3474 121.373 20.2 121.974 20.2 122.631C20.2 123.311 20.3417 123.923 20.625 124.467C20.9084 125.011 21.2994 125.442 21.798 125.759C22.308 126.065 22.886 126.218 23.532 126.218C23.94 126.218 24.263 126.184 24.501 126.116C24.7504 126.048 24.994 125.952 25.232 125.827C25.3114 125.782 25.4474 125.68 25.64 125.521C25.7307 125.442 25.81 125.385 25.878 125.351C25.946 125.306 26.0197 125.283 26.099 125.283C26.235 125.283 26.3427 125.329 26.422 125.419C26.5014 125.499 26.541 125.606 26.541 125.742C26.541 125.935 26.405 126.145 26.133 126.371C25.861 126.587 25.487 126.774 25.011 126.932C24.535 127.091 24.008 127.17 23.43 127.17C22.6027 127.17 21.866 126.978 21.22 126.592C20.574 126.196 20.0697 125.652 19.707 124.96C19.3557 124.269 19.18 123.493 19.18 122.631C19.18 121.804 19.3614 121.05 19.724 120.37C20.0867 119.679 20.5967 119.129 21.254 118.721C21.9114 118.313 22.665 118.109 23.515 118.109ZM32.5535 118.109C32.7801 118.109 32.9841 118.155 33.1655 118.245C33.3468 118.336 33.4375 118.472 33.4375 118.653C33.4375 118.812 33.3921 118.942 33.3015 119.044C33.2108 119.135 33.1031 119.18 32.9785 119.18C32.9218 119.18 32.8085 119.152 32.6385 119.095C32.4798 119.039 32.3268 119.01 32.1795 119.01C31.7601 119.01 31.3408 119.175 30.9215 119.503C30.5135 119.821 30.1735 120.234 29.9015 120.744C29.6408 121.254 29.5105 121.77 29.5105 122.291V126.49C29.5105 126.638 29.4595 126.762 29.3575 126.864C29.2668 126.955 29.1478 127 29.0005 127C28.8531 127 28.7285 126.955 28.6265 126.864C28.5358 126.762 28.4905 126.638 28.4905 126.49V118.874C28.4905 118.727 28.5358 118.608 28.6265 118.517C28.7285 118.415 28.8531 118.364 29.0005 118.364C29.1478 118.364 29.2668 118.415 29.3575 118.517C29.4595 118.608 29.5105 118.727 29.5105 118.874V120.37C29.7711 119.724 30.1621 119.192 30.6835 118.772C31.2161 118.342 31.8395 118.121 32.5535 118.109ZM41.9936 122.155C41.9936 122.291 41.9426 122.41 41.8406 122.512C41.7386 122.603 41.6196 122.648 41.4836 122.648H35.0576C35.0576 123.328 35.1936 123.94 35.4656 124.484C35.749 125.017 36.1456 125.442 36.6556 125.759C37.177 126.065 37.789 126.218 38.4916 126.218C39.0356 126.218 39.523 126.105 39.9536 125.878C40.3843 125.652 40.73 125.363 40.9906 125.011C41.1153 124.909 41.2343 124.858 41.3476 124.858C41.461 124.858 41.563 124.904 41.6536 124.994C41.7443 125.085 41.7896 125.187 41.7896 125.3C41.7896 125.425 41.733 125.544 41.6196 125.657C41.257 126.099 40.798 126.462 40.2426 126.745C39.6986 127.029 39.1206 127.17 38.5086 127.17C37.636 127.17 36.8653 126.983 36.1966 126.609C35.528 126.235 35.0066 125.714 34.6326 125.045C34.2586 124.365 34.0716 123.583 34.0716 122.699C34.0716 121.77 34.253 120.96 34.6156 120.268C34.9896 119.566 35.4826 119.033 36.0946 118.67C36.7066 118.296 37.3583 118.109 38.0496 118.109C38.7296 118.109 39.3643 118.268 39.9536 118.585C40.5543 118.903 41.0416 119.367 41.4156 119.979C41.7896 120.591 41.9823 121.317 41.9936 122.155ZM38.0496 119.095C37.3923 119.095 36.7803 119.322 36.2136 119.775C35.6583 120.229 35.3013 120.88 35.1426 121.73H40.9396V121.594C40.883 121.084 40.713 120.642 40.4296 120.268C40.1463 119.883 39.7893 119.594 39.3586 119.401C38.9393 119.197 38.503 119.095 38.0496 119.095ZM45.7959 119.299V124.994C45.7959 125.425 45.8753 125.72 46.0339 125.878C46.1926 126.026 46.4023 126.099 46.6629 126.099C46.7309 126.099 46.8159 126.088 46.9179 126.065C47.0199 126.031 47.0993 126.014 47.1559 126.014C47.2579 126.014 47.3429 126.06 47.4109 126.15C47.4903 126.23 47.5299 126.326 47.5299 126.439C47.5299 126.598 47.4393 126.734 47.2579 126.847C47.0766 126.949 46.8613 127 46.6119 127C46.3059 127 46.0339 126.972 45.7959 126.915C45.5579 126.859 45.3256 126.689 45.0989 126.405C44.8836 126.122 44.7759 125.669 44.7759 125.045V119.299H43.5349C43.3989 119.299 43.2799 119.254 43.1779 119.163C43.0873 119.073 43.0419 118.959 43.0419 118.823C43.0419 118.687 43.0873 118.574 43.1779 118.483C43.2799 118.393 43.3989 118.347 43.5349 118.347H44.7759V116.46C44.7759 116.313 44.8213 116.194 44.9119 116.103C45.0139 116.001 45.1386 115.95 45.2859 115.95C45.4333 115.95 45.5523 116.001 45.6429 116.103C45.7449 116.194 45.7959 116.313 45.7959 116.46V118.347H47.4959C47.6206 118.347 47.7283 118.398 47.8189 118.5C47.9209 118.602 47.9719 118.716 47.9719 118.84C47.9719 118.976 47.9266 119.09 47.8359 119.18C47.7453 119.26 47.6319 119.299 47.4959 119.299H45.7959ZM56.9117 118.313C57.059 118.313 57.178 118.364 57.2687 118.466C57.3707 118.568 57.4217 118.693 57.4217 118.84V126.49C57.4217 126.638 57.3707 126.762 57.2687 126.864C57.178 126.955 57.059 127 56.9117 127C56.7643 127 56.6397 126.955 56.5377 126.864C56.447 126.762 56.4017 126.638 56.4017 126.49V125.351C56.1183 125.861 55.6933 126.292 55.1267 126.643C54.56 126.995 53.9423 127.17 53.2737 127.17C52.5143 127.17 51.8287 126.972 51.2167 126.575C50.616 126.179 50.14 125.635 49.7887 124.943C49.4487 124.252 49.2787 123.476 49.2787 122.614C49.2787 121.753 49.4543 120.982 49.8057 120.302C50.157 119.611 50.633 119.073 51.2337 118.687C51.8457 118.302 52.52 118.109 53.2567 118.109C53.9367 118.109 54.56 118.274 55.1267 118.602C55.6933 118.931 56.1183 119.362 56.4017 119.894V118.84C56.4017 118.693 56.447 118.568 56.5377 118.466C56.6397 118.364 56.7643 118.313 56.9117 118.313ZM53.3757 126.218C53.965 126.218 54.492 126.065 54.9567 125.759C55.4327 125.442 55.801 125.011 56.0617 124.467C56.3337 123.912 56.4697 123.294 56.4697 122.614C56.4697 121.957 56.3337 121.356 56.0617 120.812C55.801 120.268 55.4327 119.843 54.9567 119.537C54.492 119.22 53.965 119.061 53.3757 119.061C52.7863 119.061 52.2537 119.214 51.7777 119.52C51.313 119.826 50.9447 120.251 50.6727 120.795C50.412 121.328 50.2817 121.934 50.2817 122.614C50.2817 123.294 50.412 123.912 50.6727 124.467C50.9333 125.011 51.296 125.442 51.7607 125.759C52.2367 126.065 52.775 126.218 53.3757 126.218ZM53.2567 117.633C53.1887 117.633 53.1263 117.605 53.0697 117.548C53.013 117.48 52.9847 117.407 52.9847 117.327C52.9847 117.259 53.013 117.18 53.0697 117.089L54.1067 115.474C54.2427 115.225 54.4353 115.1 54.6847 115.1C54.8547 115.1 54.9907 115.146 55.0927 115.236C55.1947 115.327 55.24 115.457 55.2287 115.627C55.2287 115.752 55.172 115.882 55.0587 116.018L53.7837 117.361C53.6023 117.543 53.4267 117.633 53.2567 117.633ZM64.1462 118.109C64.3729 118.109 64.5769 118.155 64.7582 118.245C64.9396 118.336 65.0302 118.472 65.0302 118.653C65.0302 118.812 64.9849 118.942 64.8942 119.044C64.8036 119.135 64.6959 119.18 64.5712 119.18C64.5146 119.18 64.4012 119.152 64.2312 119.095C64.0726 119.039 63.9196 119.01 63.7722 119.01C63.3529 119.01 62.9336 119.175 62.5142 119.503C62.1062 119.821 61.7662 120.234 61.4942 120.744C61.2336 121.254 61.1032 121.77 61.1032 122.291V126.49C61.1032 126.638 61.0522 126.762 60.9502 126.864C60.8596 126.955 60.7406 127 60.5932 127C60.4459 127 60.3212 126.955 60.2192 126.864C60.1286 126.762 60.0832 126.638 60.0832 126.49V118.874C60.0832 118.727 60.1286 118.608 60.2192 118.517C60.3212 118.415 60.4459 118.364 60.5932 118.364C60.7406 118.364 60.8596 118.415 60.9502 118.517C61.0522 118.608 61.1032 118.727 61.1032 118.874V120.37C61.3639 119.724 61.7549 119.192 62.2762 118.772C62.8089 118.342 63.4322 118.121 64.1462 118.109ZM67.6103 126.49C67.6103 126.638 67.5593 126.762 67.4573 126.864C67.3666 126.955 67.2476 127 67.1003 127C66.9529 127 66.8283 126.955 66.7263 126.864C66.6356 126.762 66.5903 126.638 66.5903 126.49V118.67C66.5903 118.523 66.6356 118.404 66.7263 118.313C66.8283 118.211 66.9529 118.16 67.1003 118.16C67.2476 118.16 67.3666 118.211 67.4573 118.313C67.5593 118.404 67.6103 118.523 67.6103 118.67V126.49ZM67.1003 117.021C66.8736 117.021 66.6979 116.97 66.5733 116.868C66.4486 116.755 66.3863 116.596 66.3863 116.392V116.222C66.3863 116.018 66.4486 115.865 66.5733 115.763C66.7093 115.65 66.8906 115.593 67.1173 115.593C67.5706 115.593 67.7973 115.803 67.7973 116.222V116.392C67.7973 116.596 67.7349 116.755 67.6103 116.868C67.4969 116.97 67.3269 117.021 67.1003 117.021ZM77.315 118.313C77.4623 118.313 77.5813 118.364 77.672 118.466C77.774 118.568 77.825 118.693 77.825 118.84V126.49C77.825 126.638 77.774 126.762 77.672 126.864C77.5813 126.955 77.4623 127 77.315 127C77.1677 127 77.043 126.955 76.941 126.864C76.8503 126.762 76.805 126.638 76.805 126.49V125.351C76.5217 125.861 76.0967 126.292 75.53 126.643C74.9633 126.995 74.3457 127.17 73.677 127.17C72.9177 127.17 72.232 126.972 71.62 126.575C71.0193 126.179 70.5433 125.635 70.192 124.943C69.852 124.252 69.682 123.476 69.682 122.614C69.682 121.753 69.8577 120.982 70.209 120.302C70.5603 119.611 71.0363 119.073 71.637 118.687C72.249 118.302 72.9233 118.109 73.66 118.109C74.34 118.109 74.9633 118.274 75.53 118.602C76.0967 118.931 76.5217 119.362 76.805 119.894V118.84C76.805 118.693 76.8503 118.568 76.941 118.466C77.043 118.364 77.1677 118.313 77.315 118.313ZM73.779 126.218C74.3683 126.218 74.8953 126.065 75.36 125.759C75.836 125.442 76.2043 125.011 76.465 124.467C76.737 123.912 76.873 123.294 76.873 122.614C76.873 121.957 76.737 121.356 76.465 120.812C76.2043 120.268 75.836 119.843 75.36 119.537C74.8953 119.22 74.3683 119.061 73.779 119.061C73.1897 119.061 72.657 119.214 72.181 119.52C71.7163 119.826 71.348 120.251 71.076 120.795C70.8153 121.328 70.685 121.934 70.685 122.614C70.685 123.294 70.8153 123.912 71.076 124.467C71.3367 125.011 71.6993 125.442 72.164 125.759C72.64 126.065 73.1783 126.218 73.779 126.218ZM87.5416 114.42C87.6889 114.42 87.8079 114.471 87.8986 114.573C88.0006 114.664 88.0516 114.783 88.0516 114.93V126.49C88.0516 126.638 88.0006 126.762 87.8986 126.864C87.8079 126.955 87.6889 127 87.5416 127C87.3942 127 87.2696 126.955 87.1676 126.864C87.0769 126.762 87.0316 126.638 87.0316 126.49V125.3C86.7482 125.822 86.3232 126.264 85.7566 126.626C85.2012 126.989 84.5836 127.17 83.9036 127.17C83.1556 127.17 82.4756 126.978 81.8636 126.592C81.2629 126.196 80.7869 125.652 80.4356 124.96C80.0842 124.269 79.9086 123.493 79.9086 122.631C79.9086 121.781 80.0842 121.011 80.4356 120.319C80.7869 119.628 81.2629 119.09 81.8636 118.704C82.4756 118.308 83.1499 118.109 83.8866 118.109C84.5552 118.109 85.1729 118.279 85.7396 118.619C86.3062 118.948 86.7369 119.379 87.0316 119.911V114.93C87.0316 114.783 87.0769 114.664 87.1676 114.573C87.2696 114.471 87.3942 114.42 87.5416 114.42ZM84.0056 126.218C84.5949 126.218 85.1219 126.065 85.5866 125.759C86.0626 125.453 86.4309 125.028 86.6916 124.484C86.9636 123.929 87.0996 123.311 87.0996 122.631C87.0996 121.963 86.9636 121.356 86.6916 120.812C86.4309 120.268 86.0626 119.843 85.5866 119.537C85.1219 119.22 84.5949 119.061 84.0056 119.061C83.4162 119.061 82.8836 119.22 82.4076 119.537C81.9429 119.843 81.5746 120.268 81.3026 120.812C81.0419 121.356 80.9116 121.963 80.9116 122.631C80.9116 123.311 81.0419 123.923 81.3026 124.467C81.5746 125.011 81.9429 125.442 82.4076 125.759C82.8836 126.065 83.4162 126.218 84.0056 126.218ZM98.7371 122.648C98.7371 123.498 98.5501 124.269 98.1761 124.96C97.8021 125.652 97.2865 126.196 96.6291 126.592C95.9718 126.978 95.2408 127.17 94.4361 127.17C93.6315 127.17 92.9005 126.978 92.2431 126.592C91.5858 126.196 91.0701 125.652 90.6961 124.96C90.3221 124.269 90.1351 123.498 90.1351 122.648C90.1351 121.798 90.3221 121.028 90.6961 120.336C91.0701 119.645 91.5858 119.101 92.2431 118.704C92.9005 118.308 93.6315 118.109 94.4361 118.109C95.2408 118.109 95.9718 118.308 96.6291 118.704C97.2865 119.101 97.8021 119.645 98.1761 120.336C98.5501 121.028 98.7371 121.798 98.7371 122.648ZM97.7171 122.648C97.7171 121.968 97.5755 121.356 97.2921 120.812C97.0088 120.268 96.6121 119.843 96.1021 119.537C95.6035 119.22 95.0481 119.061 94.4361 119.061C93.8241 119.061 93.2688 119.22 92.7701 119.537C92.2715 119.843 91.8748 120.268 91.5801 120.812C91.2968 121.356 91.1551 121.968 91.1551 122.648C91.1551 123.317 91.2968 123.923 91.5801 124.467C91.8748 125.011 92.2715 125.442 92.7701 125.759C93.2688 126.065 93.8241 126.218 94.4361 126.218C95.0481 126.218 95.6035 126.065 96.1021 125.759C96.6121 125.453 97.0088 125.028 97.2921 124.484C97.5755 123.94 97.7171 123.328 97.7171 122.648ZM113.496 122.648C113.496 123.498 113.309 124.269 112.935 124.96C112.561 125.652 112.045 126.196 111.388 126.592C110.731 126.978 110 127.17 109.195 127.17C108.39 127.17 107.659 126.978 107.002 126.592C106.345 126.196 105.829 125.652 105.455 124.96C105.081 124.269 104.894 123.498 104.894 122.648C104.894 121.798 105.081 121.028 105.455 120.336C105.829 119.645 106.345 119.101 107.002 118.704C107.659 118.308 108.39 118.109 109.195 118.109C110 118.109 110.731 118.308 111.388 118.704C112.045 119.101 112.561 119.645 112.935 120.336C113.309 121.028 113.496 121.798 113.496 122.648ZM112.476 122.648C112.476 121.968 112.334 121.356 112.051 120.812C111.768 120.268 111.371 119.843 110.861 119.537C110.362 119.22 109.807 119.061 109.195 119.061C108.583 119.061 108.028 119.22 107.529 119.537C107.03 119.843 106.634 120.268 106.339 120.812C106.056 121.356 105.914 121.968 105.914 122.648C105.914 123.317 106.056 123.923 106.339 124.467C106.634 125.011 107.03 125.442 107.529 125.759C108.028 126.065 108.583 126.218 109.195 126.218C109.807 126.218 110.362 126.065 110.861 125.759C111.371 125.453 111.768 125.028 112.051 124.484C112.334 123.94 112.476 123.328 112.476 122.648ZM119.679 118.109C120.733 118.109 121.504 118.421 121.991 119.044C122.49 119.656 122.739 120.472 122.739 121.492V126.49C122.739 126.638 122.688 126.762 122.586 126.864C122.484 126.955 122.365 127 122.229 127C122.082 127 121.957 126.955 121.855 126.864C121.765 126.762 121.719 126.638 121.719 126.49V121.543C121.719 120.807 121.532 120.212 121.158 119.758C120.796 119.294 120.229 119.061 119.458 119.061C118.971 119.061 118.506 119.175 118.064 119.401C117.634 119.628 117.282 119.934 117.01 120.319C116.738 120.693 116.602 121.101 116.602 121.543V126.49C116.602 126.638 116.551 126.762 116.449 126.864C116.359 126.955 116.24 127 116.092 127C115.945 127 115.82 126.955 115.718 126.864C115.628 126.762 115.582 126.638 115.582 126.49V118.874C115.582 118.727 115.628 118.608 115.718 118.517C115.82 118.415 115.945 118.364 116.092 118.364C116.24 118.364 116.359 118.415 116.449 118.517C116.551 118.608 116.602 118.727 116.602 118.874V119.809C116.908 119.322 117.345 118.92 117.911 118.602C118.489 118.274 119.079 118.109 119.679 118.109ZM126.532 126.49C126.532 126.638 126.481 126.762 126.379 126.864C126.289 126.955 126.17 127 126.022 127C125.875 127 125.75 126.955 125.648 126.864C125.558 126.762 125.512 126.638 125.512 126.49V114.93C125.512 114.783 125.558 114.664 125.648 114.573C125.75 114.471 125.875 114.42 126.022 114.42C126.17 114.42 126.289 114.471 126.379 114.573C126.481 114.664 126.532 114.783 126.532 114.93V126.49ZM130.314 126.49C130.314 126.638 130.263 126.762 130.161 126.864C130.071 126.955 129.952 127 129.804 127C129.657 127 129.532 126.955 129.43 126.864C129.34 126.762 129.294 126.638 129.294 126.49V118.67C129.294 118.523 129.34 118.404 129.43 118.313C129.532 118.211 129.657 118.16 129.804 118.16C129.952 118.16 130.071 118.211 130.161 118.313C130.263 118.404 130.314 118.523 130.314 118.67V126.49ZM129.804 117.021C129.578 117.021 129.402 116.97 129.277 116.868C129.153 116.755 129.09 116.596 129.09 116.392V116.222C129.09 116.018 129.153 115.865 129.277 115.763C129.413 115.65 129.595 115.593 129.821 115.593C130.275 115.593 130.501 115.803 130.501 116.222V116.392C130.501 116.596 130.439 116.755 130.314 116.868C130.201 116.97 130.031 117.021 129.804 117.021ZM137.061 118.109C138.115 118.109 138.886 118.421 139.373 119.044C139.872 119.656 140.121 120.472 140.121 121.492V126.49C140.121 126.638 140.07 126.762 139.968 126.864C139.866 126.955 139.747 127 139.611 127C139.464 127 139.339 126.955 139.237 126.864C139.146 126.762 139.101 126.638 139.101 126.49V121.543C139.101 120.807 138.914 120.212 138.54 119.758C138.177 119.294 137.611 119.061 136.84 119.061C136.353 119.061 135.888 119.175 135.446 119.401C135.015 119.628 134.664 119.934 134.392 120.319C134.12 120.693 133.984 121.101 133.984 121.543V126.49C133.984 126.638 133.933 126.762 133.831 126.864C133.74 126.955 133.621 127 133.474 127C133.327 127 133.202 126.955 133.1 126.864C133.009 126.762 132.964 126.638 132.964 126.49V118.874C132.964 118.727 133.009 118.608 133.1 118.517C133.202 118.415 133.327 118.364 133.474 118.364C133.621 118.364 133.74 118.415 133.831 118.517C133.933 118.608 133.984 118.727 133.984 118.874V119.809C134.29 119.322 134.726 118.92 135.293 118.602C135.871 118.274 136.46 118.109 137.061 118.109ZM150.136 122.155C150.136 122.291 150.085 122.41 149.983 122.512C149.881 122.603 149.762 122.648 149.626 122.648H143.2C143.2 123.328 143.336 123.94 143.608 124.484C143.892 125.017 144.288 125.442 144.798 125.759C145.32 126.065 145.932 126.218 146.634 126.218C147.178 126.218 147.666 126.105 148.096 125.878C148.527 125.652 148.873 125.363 149.133 125.011C149.258 124.909 149.377 124.858 149.49 124.858C149.604 124.858 149.706 124.904 149.796 124.994C149.887 125.085 149.932 125.187 149.932 125.3C149.932 125.425 149.876 125.544 149.762 125.657C149.4 126.099 148.941 126.462 148.385 126.745C147.841 127.029 147.263 127.17 146.651 127.17C145.779 127.17 145.008 126.983 144.339 126.609C143.671 126.235 143.149 125.714 142.775 125.045C142.401 124.365 142.214 123.583 142.214 122.699C142.214 121.77 142.396 120.96 142.758 120.268C143.132 119.566 143.625 119.033 144.237 118.67C144.849 118.296 145.501 118.109 146.192 118.109C146.872 118.109 147.507 118.268 148.096 118.585C148.697 118.903 149.184 119.367 149.558 119.979C149.932 120.591 150.125 121.317 150.136 122.155ZM146.192 119.095C145.535 119.095 144.923 119.322 144.356 119.775C143.801 120.229 143.444 120.88 143.285 121.73H149.082V121.594C149.026 121.084 148.856 120.642 148.572 120.268C148.289 119.883 147.932 119.594 147.501 119.401C147.082 119.197 146.646 119.095 146.192 119.095Z" fill="#F0F0F0"/>
<path d="M0.4 81.54C0.4 80.34 0.7 79.44 1.3 78.84C1.9 78.2 2.66 77.88 3.58 77.88C4.5 77.88 5.24 78.16 5.8 78.72V91.44C5.8 99.2 8.1 103.08 12.7 103.08C13.7 103.08 14.58 102.78 15.34 102.18C13.66 100.58 12.4 98.58 11.56 96.18C10.72 93.78 10.3 91.46 10.3 89.22C10.3 85.26 10.86 82.28 11.98 80.28C13.14 78.24 15.08 77.22 17.8 77.22C19.68 77.22 21.18 77.86 22.3 79.14C23.46 80.42 24.04 82.12 24.04 84.24C24.04 91.88 22.38 97.68 19.06 101.64C20.42 102.44 21.94 102.84 23.62 102.84C25.86 102.84 27.7 101.88 29.14 99.96C30.58 98.04 31.3 95.1 31.3 91.14C31.34 90.9 31.64 90.78 32.2 90.78C32.92 90.78 33.28 91.72 33.28 93.6C33.28 96.92 32.44 99.68 30.76 101.88C29.08 104.08 26.52 105.18 23.08 105.18C20.76 105.18 18.76 104.62 17.08 103.5C15.48 104.62 13.78 105.18 11.98 105.18C8.54 105.18 5.74 103.94 3.58 101.46C1.46 98.98 0.4 95.54 0.4 91.14V81.54ZM16.9 80.46C14.54 80.46 13.36 83.04 13.36 88.2C13.36 93.36 14.58 97.3 17.02 100.02C18.54 97.18 19.3 92.44 19.3 85.8C19.3 82.24 18.5 80.46 16.9 80.46ZM31.713 72C31.033 71.32 30.693 70.48 30.693 69.48C30.693 68.48 31.033 67.64 31.713 66.96C32.393 66.24 33.233 65.88 34.233 65.88C35.233 65.88 36.073 66.24 36.753 66.96C37.473 67.64 37.833 68.48 37.833 69.48C37.833 70.48 37.473 71.32 36.753 72C36.073 72.68 35.233 73.02 34.233 73.02C33.233 73.02 32.393 72.68 31.713 72ZM31.473 81.54C31.473 80.34 31.773 79.44 32.373 78.84C32.973 78.2 33.733 77.88 34.653 77.88C35.573 77.88 36.313 78.16 36.873 78.72V95.94C36.873 98.22 37.313 99.94 38.193 101.1C39.073 102.26 40.273 102.84 41.793 102.84C43.313 102.84 44.733 101.92 46.053 100.08C47.373 98.24 48.033 95.26 48.033 91.14C48.113 90.9 48.413 90.78 48.933 90.78C49.653 90.78 50.013 91.84 50.013 93.96C50.013 97.04 49.173 99.68 47.493 101.88C45.813 104.08 43.673 105.18 41.073 105.18C37.833 105.18 35.413 104.22 33.813 102.3C32.253 100.38 31.473 97.66 31.473 94.14V81.54ZM48.168 72.66C48.168 71.46 48.468 70.56 49.068 69.96C49.668 69.32 50.428 69 51.348 69C52.268 69 53.008 69.28 53.568 69.84V78.72H61.788C62.628 78.72 63.168 78.88 63.408 79.2C63.688 79.52 63.828 80.06 63.828 80.82H53.568V95.94C53.568 98.14 54.188 99.84 55.428 101.04C56.708 102.24 58.168 102.84 59.808 102.84C62.288 102.84 64.108 101.92 65.268 100.08C66.428 98.24 67.008 95.26 67.008 91.14C67.088 90.9 67.388 90.78 67.908 90.78C68.628 90.78 68.988 91.84 68.988 93.96C68.988 97.2 68.168 99.88 66.528 102C64.928 104.12 62.448 105.18 59.088 105.18C55.728 105.18 53.068 104.3 51.108 102.54C49.148 100.78 48.168 98.16 48.168 94.68V72.66ZM84.9723 79.62C85.4923 78.46 86.3123 77.88 87.4323 77.88C88.5923 77.88 89.4523 78.16 90.0123 78.72V95.94C90.0123 98.22 90.3723 99.94 91.0923 101.1C91.8123 102.26 92.7923 102.84 94.0323 102.84C97.7923 102.84 99.6723 98.94 99.6723 91.14C99.7123 90.9 100.012 90.78 100.572 90.78C101.292 90.78 101.652 91.84 101.652 93.96C101.652 97.36 100.912 100.08 99.4323 102.12C97.9923 104.16 95.9523 105.18 93.3123 105.18C89.2723 105.18 86.5923 103.4 85.2723 99.84C84.5123 101.48 83.4723 102.78 82.1523 103.74C80.8323 104.7 79.3323 105.18 77.6523 105.18C70.6523 105.18 67.1523 100.6 67.1523 91.44C67.1523 86.8 68.2323 83.38 70.3923 81.18C72.5923 78.98 75.4923 77.88 79.0923 77.88C81.8523 77.88 83.8123 78.46 84.9723 79.62ZM73.6923 98.82C74.2523 100.58 74.8923 101.7 75.6123 102.18C76.3323 102.62 77.2923 102.84 78.4923 102.84C79.6923 102.84 80.9923 102.1 82.3923 100.62C83.8323 99.1 84.5523 97.14 84.5523 94.74V86.52C84.5523 84.64 84.0523 83.12 83.0523 81.96C82.0923 80.8 80.9923 80.22 79.7523 80.22C78.5523 80.22 77.5923 80.34 76.8723 80.58C76.1523 80.82 75.4723 81.32 74.8323 82.08C73.5123 83.52 72.8523 86.64 72.8523 91.44C72.8523 94.6 73.1323 97.06 73.6923 98.82ZM117.429 90.78C118.149 90.78 118.509 91.84 118.509 93.96C118.509 97.04 117.669 99.68 115.989 101.88C114.309 104.08 112.169 105.18 109.569 105.18C106.329 105.18 103.909 104.22 102.309 102.3C100.709 100.38 99.9091 97.66 99.9091 94.14V71.58C99.9091 66.42 100.449 62.64 101.529 60.24C102.609 57.84 104.509 56.64 107.229 56.64C111.189 56.64 113.169 59.32 113.169 64.68C113.169 68.72 112.369 71.96 110.769 74.4C109.209 76.84 107.409 78.66 105.369 79.86V95.94C105.369 98.22 105.809 99.94 106.689 101.1C107.569 102.26 108.769 102.84 110.289 102.84C111.809 102.84 113.229 101.92 114.549 100.08C115.869 98.24 116.529 95.26 116.529 91.14C116.609 90.9 116.909 90.78 117.429 90.78ZM110.589 64.74C110.589 60.9 109.629 58.98 107.709 58.98C107.229 58.98 106.849 59.14 106.569 59.46C106.329 59.78 106.109 60.58 105.909 61.86C105.549 63.82 105.369 68.98 105.369 77.34C108.849 74.82 110.589 70.62 110.589 64.74ZM155.578 79.62C156.098 78.46 156.918 77.88 158.038 77.88C159.198 77.88 160.058 78.16 160.618 78.72V95.94C160.618 98.22 160.978 99.94 161.698 101.1C162.418 102.26 163.398 102.84 164.638 102.84C168.398 102.84 170.278 98.94 170.278 91.14C170.318 90.9 170.618 90.78 171.178 90.78C171.898 90.78 172.258 91.84 172.258 93.96C172.258 97.36 171.518 100.08 170.038 102.12C168.598 104.16 166.558 105.18 163.918 105.18C159.878 105.18 157.198 103.4 155.878 99.84C155.118 101.48 154.078 102.78 152.758 103.74C151.438 104.7 149.938 105.18 148.258 105.18C141.258 105.18 137.758 100.6 137.758 91.44C137.758 86.8 138.838 83.38 140.998 81.18C143.198 78.98 146.098 77.88 149.698 77.88C152.458 77.88 154.418 78.46 155.578 79.62ZM144.298 98.82C144.858 100.58 145.498 101.7 146.218 102.18C146.938 102.62 147.898 102.84 149.098 102.84C150.298 102.84 151.598 102.1 152.998 100.62C154.438 99.1 155.158 97.14 155.158 94.74V86.52C155.158 84.64 154.658 83.12 153.658 81.96C152.698 80.8 151.598 80.22 150.358 80.22C149.158 80.22 148.198 80.34 147.478 80.58C146.758 80.82 146.078 81.32 145.438 82.08C144.118 83.52 143.458 86.64 143.458 91.44C143.458 94.6 143.738 97.06 144.298 98.82ZM170.335 81.54C170.335 80.34 170.635 79.44 171.235 78.84C171.835 78.2 172.595 77.88 173.515 77.88C174.435 77.88 175.175 78.16 175.735 78.72V111.9C176.215 111.86 176.975 111.84 178.015 111.84C179.055 111.84 179.575 112.28 179.575 113.16L179.215 114.06C177.655 114.06 176.495 114.08 175.735 114.12V115.38C175.735 119.22 174.915 122.24 173.275 124.44C171.635 126.64 169.435 127.74 166.675 127.74C165.075 127.74 163.655 127.22 162.415 126.18C161.175 125.14 160.555 123.48 160.555 121.2C160.555 118.92 161.455 117.06 163.255 115.62C165.015 114.18 167.375 113.16 170.335 112.56V81.54ZM166.555 125.4C167.835 125.4 168.795 124.86 169.435 123.78C170.035 122.7 170.335 120.72 170.335 117.84V114.84C165.855 115.92 163.615 118.1 163.615 121.38C163.615 124.06 164.595 125.4 166.555 125.4ZM170.575 68.7C169.895 68.02 169.555 67.18 169.555 66.18C169.555 65.18 169.895 64.34 170.575 63.66C171.255 62.94 172.095 62.58 173.095 62.58C174.095 62.58 174.935 62.94 175.615 63.66C176.335 64.34 176.695 65.18 176.695 66.18C176.695 67.18 176.335 68.02 175.615 68.7C174.935 69.38 174.095 69.72 173.095 69.72C172.095 69.72 171.255 69.38 170.575 68.7ZM198.429 81.54C198.429 80.34 198.769 79.44 199.449 78.84C200.129 78.2 200.949 77.88 201.909 77.88C202.869 77.88 203.629 78.16 204.189 78.72V95.94C204.189 98.22 204.549 99.94 205.269 101.1C205.989 102.26 206.969 102.84 208.209 102.84C209.449 102.84 210.649 102.12 211.809 100.68C213.169 98.96 213.849 95.78 213.849 91.14C213.889 90.9 214.189 90.78 214.749 90.78C215.469 90.78 215.829 91.84 215.829 93.96C215.829 97.36 215.089 100.08 213.609 102.12C212.169 104.16 210.129 105.18 207.489 105.18C203.289 105.18 200.529 103.28 199.209 99.48C197.649 103.28 194.789 105.18 190.629 105.18C188.149 105.18 186.149 104.44 184.629 102.96C183.109 101.44 182.349 99.28 182.349 96.48V81.54C182.349 80.34 182.649 79.44 183.249 78.84C183.849 78.2 184.609 77.88 185.529 77.88C186.449 77.88 187.189 78.16 187.749 78.72V95.94C187.749 100.7 188.949 103.08 191.349 103.08C193.149 103.08 194.769 102 196.209 99.84C197.689 97.68 198.429 94.64 198.429 90.72V81.54ZM213.93 91.08C213.93 86.48 215.01 83.14 217.17 81.06C219.37 78.94 222.27 77.88 225.87 77.88C228.19 77.88 230.03 78.34 231.39 79.26V71.1C231.39 66.06 231.89 62.4 232.89 60.12C233.93 57.8 235.85 56.64 238.65 56.64C240.17 56.64 241.35 57.28 242.19 58.56C243.03 59.84 243.45 61.66 243.45 64.02C243.45 68.3 241.23 72.66 236.79 77.1V95.94C236.79 98.22 237.17 99.94 237.93 101.1C238.73 102.26 239.77 102.84 241.05 102.84C242.33 102.84 243.55 102.06 244.71 100.5C245.91 98.9 246.51 96.38 246.51 92.94C246.51 92.18 246.49 91.58 246.45 91.14C246.49 90.9 246.79 90.78 247.35 90.78C248.07 90.78 248.43 91.84 248.43 93.96C248.43 97.28 247.67 99.98 246.15 102.06C244.67 104.14 242.75 105.18 240.39 105.18C236.11 105.18 233.31 103.3 231.99 99.54C231.23 101.22 230.19 102.58 228.87 103.62C227.55 104.62 226.07 105.12 224.43 105.12C217.43 105.12 213.93 100.44 213.93 91.08ZM225.03 102.78C226.51 102.78 227.91 101.98 229.23 100.38C230.59 98.74 231.27 96.66 231.27 94.14V86.46C231.27 84.5 230.79 82.98 229.83 81.9C228.91 80.78 227.81 80.22 226.53 80.22C225.29 80.22 224.31 80.32 223.59 80.52C222.91 80.72 222.23 81.16 221.55 81.84C220.27 83.16 219.63 86.24 219.63 91.08C219.63 95.96 220.19 99.16 221.31 100.68C222.31 102.08 223.55 102.78 225.03 102.78ZM238.71 58.98C237.87 58.98 237.33 59.92 237.09 61.8C236.89 63.64 236.79 67.78 236.79 74.22C239.51 70.7 240.87 67.28 240.87 63.96C240.87 60.64 240.15 58.98 238.71 58.98ZM264.269 79.62C264.789 78.46 265.609 77.88 266.729 77.88C267.889 77.88 268.749 78.16 269.309 78.72V95.94C269.309 98.22 269.669 99.94 270.389 101.1C271.109 102.26 272.089 102.84 273.329 102.84C277.089 102.84 278.969 98.94 278.969 91.14C279.009 90.9 279.309 90.78 279.869 90.78C280.589 90.78 280.949 91.84 280.949 93.96C280.949 97.36 280.209 100.08 278.729 102.12C277.289 104.16 275.249 105.18 272.609 105.18C268.569 105.18 265.889 103.4 264.569 99.84C263.809 101.48 262.769 102.78 261.449 103.74C260.129 104.7 258.629 105.18 256.949 105.18C249.949 105.18 246.449 100.6 246.449 91.44C246.449 86.8 247.529 83.38 249.689 81.18C251.889 78.98 254.789 77.88 258.389 77.88C261.149 77.88 263.109 78.46 264.269 79.62ZM252.989 98.82C253.549 100.58 254.189 101.7 254.909 102.18C255.629 102.62 256.589 102.84 257.789 102.84C258.989 102.84 260.289 102.1 261.689 100.62C263.129 99.1 263.849 97.14 263.849 94.74V86.52C263.849 84.64 263.349 83.12 262.349 81.96C261.389 80.8 260.289 80.22 259.049 80.22C257.849 80.22 256.889 80.34 256.169 80.58C255.449 80.82 254.769 81.32 254.129 82.08C252.809 83.52 252.149 86.64 252.149 91.44C252.149 94.6 252.429 97.06 252.989 98.82Z" fill="#F0F0F0"/>
<g opacity="0.3">
<g clip-path="url(#clip0)">
<path d="M168.184 123.987C168.184 120.816 166.949 117.835 164.707 115.595C163.173 114.058 161.307 113.082 159.346 112.566L165.576 106.332C167.819 104.092 169.053 101.111 169.053 97.9428C169.053 94.7715 167.819 91.7927 165.576 89.5531C163.336 87.3104 160.354 86.0762 157.186 86.0762C154.015 86.0762 151.036 87.3104 148.793 89.5531L143.438 94.9081C142.91 92.9087 141.908 91.0574 140.403 89.5531C138.161 87.3104 135.182 86.0762 132.011 86.0762C128.842 86.0762 125.861 87.3104 123.621 89.5531L116.166 97.0083C115.638 95.0058 114.635 93.1545 113.131 91.6505C110.891 89.4078 107.913 88.1736 104.741 88.1736C101.57 88.1736 98.5912 89.4078 96.3516 91.6505L75.309 112.69H54.9666C53.3291 112.69 52 114.019 52 115.657C52 117.294 53.3291 118.623 54.9666 118.623H70.7491C69.0758 122.922 69.9186 128.149 73.2738 131.507C76.9614 135.189 82.4644 135.889 86.8967 133.705C87.3031 136.008 88.3534 138.197 90.059 139.9C93.717 143.555 99.1665 144.273 103.584 142.149C104.026 144.46 105.139 146.59 106.839 148.29C110.497 151.945 115.949 152.666 120.367 150.538C120.808 152.852 121.921 154.979 123.621 156.679C125.861 158.922 128.842 160.156 132.011 160.156C135.182 160.156 138.161 158.922 140.403 156.679L164.706 132.376C166.949 130.137 168.184 127.156 168.184 123.987ZM77.469 127.313C76.3505 126.192 75.7335 124.703 75.7335 123.118C75.7335 121.531 76.3505 120.042 77.469 118.92L78.635 117.754L100.547 95.8454C101.668 94.7238 103.157 94.1071 104.742 94.1071C106.326 94.1071 107.815 94.7242 108.936 95.8454C111.176 98.0881 111.176 101.995 108.936 104.235L85.8617 127.313C83.5474 129.624 79.783 129.624 77.469 127.313ZM94.2541 135.706C93.1326 134.584 92.5155 133.092 92.5155 131.508C92.5155 129.924 93.1326 128.434 94.2541 127.313L127.816 93.7483C128.938 92.6268 130.427 92.01 132.011 92.01C133.598 92.01 135.087 92.6271 136.209 93.7483C138.449 95.9883 138.449 99.8983 136.209 102.138L123.156 115.191L106.839 131.508C106.836 131.511 106.836 131.511 106.833 131.514L102.644 135.706C100.33 138.017 96.5654 138.017 94.2541 135.706ZM111.034 144.096C109.915 142.974 109.298 141.485 109.298 139.898C109.298 138.316 109.912 136.827 111.028 135.709L127.35 119.386L152.991 93.7483C154.11 92.6268 155.599 92.01 157.186 92.01C158.77 92.01 160.26 92.6271 161.381 93.7483C163.621 95.9883 163.621 99.8983 161.381 102.138L147.933 115.589C147.93 115.589 147.927 115.592 147.924 115.595L135.772 127.746L119.426 144.093C117.113 146.406 113.348 146.406 111.034 144.096ZM132.011 154.224C130.427 154.224 128.937 153.607 127.816 152.485C126.698 151.364 126.081 149.875 126.081 148.29C126.081 146.703 126.698 145.214 127.816 144.096L129.528 142.384L152.131 119.78C154.445 117.478 158.201 117.478 160.512 119.789C162.752 122.029 162.755 125.94 160.512 128.182L136.209 152.485C135.087 153.607 133.598 154.224 132.011 154.224Z" fill="#F0F0F0"/>
<path d="M126.167 29.7096C127.804 29.7096 129.133 28.3837 129.133 26.7431C129.133 25.1056 127.804 23.7765 126.167 23.7765C104.723 23.7765 92.0855 32.7269 84.5354 38.076C82.3313 39.6362 79.59 41.5762 78.7 41.5762L54.9666 41.5762C53.3291 41.5762 52 42.9053 52 44.5427C52 46.1833 53.3291 47.5093 54.9666 47.5093L78.7 47.5093C81.4767 47.5093 84.2003 45.5839 87.965 42.9139C95.3906 37.6574 106.611 29.7096 126.167 29.7096Z" fill="#F0F0F0"/>
<path d="M218.133 115.657C218.133 117.294 219.463 118.623 221.1 118.623H227.033C228.671 118.623 230 117.294 230 115.657C230 114.019 228.671 112.69 227.033 112.69H221.1C219.463 112.69 218.133 114.019 218.133 115.657Z" fill="#F0F0F0"/>
<path d="M129.632 36.9663C124.98 43.9438 112.271 65.8586 111.645 66.9503C110.657 68.9319 110.793 71.1333 112.039 73.1448C114.718 77.4822 122.073 80.1431 126.167 80.1431C131.866 80.1431 135.33 76.144 138.998 71.9075C140.267 70.439 141.584 68.9229 143.097 67.4071L157.931 52.5736C158.916 51.5915 159.844 50.6633 160.123 50.5357C160.289 50.4821 160.921 50.4762 161.541 50.4762C163.416 51.1764 169.682 56.6558 174.405 61.3728L204.16 94.098C205.009 94.9613 206.267 96.783 206.267 97.9428V124.643C206.267 127.915 203.606 130.576 200.333 130.576C197.061 130.576 194.4 127.915 194.4 124.643V103.876C194.4 99.7999 190.955 96.24 190.564 95.8454L169.797 75.0788C168.637 73.9218 166.762 73.9218 165.602 75.0788C164.442 76.2389 164.442 78.1166 165.602 79.2736L186.36 100.031C187.209 100.895 188.467 102.716 188.467 103.876V124.643V133.543C188.467 136.815 185.806 139.476 182.533 139.476C179.261 139.476 176.6 136.815 176.6 133.543V109.809C176.6 108.172 175.271 106.843 173.633 106.843C171.996 106.843 170.667 108.172 170.667 109.809V133.543V142.443C170.667 145.715 168.006 148.376 164.733 148.376C163.268 148.376 161.864 147.839 160.779 146.866C159.556 145.772 157.681 145.876 156.586 147.095C155.492 148.317 155.598 150.192 156.818 151.284C158.995 153.236 161.805 154.31 164.733 154.31C170.85 154.31 175.84 149.643 176.475 143.692C178.255 144.76 180.311 145.41 182.533 145.41C188.65 145.41 193.64 140.743 194.275 134.792C196.055 135.86 198.111 136.51 200.333 136.51C206.878 136.51 212.2 131.187 212.2 124.643V97.9431C212.2 93.8669 208.755 90.3069 208.462 90.0131L178.697 57.2788C165.961 44.5428 162.805 44.5428 161.766 44.5428C157.829 44.5428 157.088 45.0264 153.735 48.3788L138.902 63.2123C137.235 64.8765 135.79 66.5498 134.511 68.0242C130.99 72.0886 129.02 74.2097 126.166 74.2097C122.422 74.2097 116.949 71.0175 116.866 69.7656C116.996 69.5403 130.017 47.0824 134.568 40.2562C139.682 32.5845 147.734 23.7762 164.733 23.7762C177.466 23.7762 194.729 33.7887 206.15 40.4133C214.312 45.1481 218.355 47.4235 221.099 47.4235H227.033C228.67 47.4235 229.999 46.0944 229.999 44.4569C229.999 42.8195 228.67 41.4904 227.033 41.4904H221.132C219.625 41.3687 214.047 38.1351 209.129 35.2812C196.44 27.9238 179.065 17.8431 164.733 17.8431C144.697 17.8431 135.105 28.7574 129.632 36.9663Z" fill="#F0F0F0"/>
</g>
</g>
<defs>
<clipPath id="clip0">
<rect x="52" y="178" width="178" height="178" transform="rotate(-90 52 178)" fill="white"/>
</clipPath>
</defs>
</svg>
