<svg width="193" height="35" viewBox="0 0 193 35" fill="none" xmlns="http://www.w3.org/2000/svg">
<path d="M57.5493 20.9559H2.6428C2.40873 19.9849 1.22565 19.6 0.465259 20.2556C-0.0954434 20.739 -0.158215 21.5855 0.325217 22.1463C1.03934 22.9746 2.38822 22.6406 2.64255 21.5861H57.5491C57.7836 22.5592 58.9678 22.9405 59.7266 22.2864C60.2874 21.803 60.3501 20.9564 59.8666 20.3957C59.1525 19.5673 57.8036 19.9013 57.5493 20.9559Z" fill="#F0F0F0"/>
<path d="M192.535 20.2556C191.774 19.6 190.591 19.9849 190.357 20.9559H135.451C135.196 19.9013 133.848 19.5673 133.133 20.3957C132.65 20.9564 132.713 21.803 133.273 22.2864C134.032 22.9405 135.216 22.5592 135.451 21.5861H190.358C190.612 22.6406 191.961 22.9746 192.675 22.1463C193.158 21.5855 193.095 20.7391 192.535 20.2556Z" fill="#F0F0F0"/>
<path d="M96.5 2.1533C97.0946 2.1533 97.5766 1.67127 97.5766 1.07665C97.5766 0.482035 97.0946 0 96.5 0C95.9054 0 95.4233 0.482035 95.4233 1.07665C95.4233 1.67127 95.9054 2.1533 96.5 2.1533Z" fill="#F0F0F0"/>
<path d="M81.1772 26.6545C81.3767 26.955 81.8494 26.8695 81.9239 26.5166C82.2408 25.0142 81.8689 23.629 80.9371 22.3389C80.3232 23.9652 80.3555 25.4166 81.1772 26.6545Z" fill="#F0F0F0"/>
<path d="M77.8457 26.1775C77.8958 26.5346 78.3592 26.6617 78.5787 26.3756C79.5133 25.1573 79.7762 23.7474 79.4928 22.1813C78.2368 23.3831 77.6391 24.7062 77.8457 26.1775Z" fill="#F0F0F0"/>
<path d="M75.7331 25.1909C75.6886 25.5487 76.1029 25.792 76.3893 25.5729C77.6087 24.6399 78.2296 23.347 78.3635 21.7612C76.838 22.5946 75.9167 23.7165 75.7331 25.1909Z" fill="#F0F0F0"/>
<path d="M110.884 26.5166C110.958 26.8695 111.431 26.955 111.63 26.6545C112.452 25.4166 112.484 23.9652 111.87 22.3389C110.938 23.629 110.567 25.0142 110.884 26.5166Z" fill="#F0F0F0"/>
<path d="M113.315 22.1813C113.031 23.7473 113.294 25.1573 114.229 26.3756C114.448 26.6617 114.912 26.5346 114.962 26.1775C115.168 24.7062 114.571 23.3831 113.315 22.1813Z" fill="#F0F0F0"/>
<path d="M114.444 21.7612C114.578 23.347 115.199 24.6399 116.418 25.5729C116.705 25.792 117.119 25.5487 117.074 25.1909C116.891 23.7165 115.969 22.5946 114.444 21.7612Z" fill="#F0F0F0"/>
<path d="M121.831 15.191C121.33 15.0058 120.868 14.7239 120.483 14.3535C119.312 13.224 118.415 12.026 117.803 10.7566C116.634 12.7402 117.025 14.4216 119.331 15.7324C118.032 17.3938 118.16 18.4706 121.461 18.2466C120.09 21.2035 122.824 23.5656 125.534 23.0273C126.015 22.9317 126.276 22.5379 126.108 21.9808C126.856 21.6313 126.629 20.5194 125.812 20.4827C125.377 20.4631 125.009 20.7997 124.99 21.2343C124.969 21.6801 125.33 22.0838 125.827 22.052C125.394 22.5568 124.922 22.7121 124.407 22.4887C122.939 21.852 124.078 19.0572 125.942 19.3343C126.513 19.4191 127.012 19.5588 127.444 19.7518C129.282 20.5741 129.903 22.8492 128.845 24.5627C127.382 26.9316 124.949 27.5327 121.985 26.0863C118.997 24.6287 116.899 21.3009 114.199 18.4105C112.401 16.4867 109.934 15.4558 107.17 14.9398C105.318 14.5941 103.58 14.7264 101.951 14.4684C99.3945 14.0635 98.3416 12.28 98.1588 10.8888C98.0937 10.3931 98.401 9.91726 98.8737 9.75405C100.593 9.16058 101.305 10.4764 100.893 11.1374C100.927 10.7153 100.595 10.3992 100.216 10.3992C99.5342 10.3992 99.2729 11.2938 99.8537 11.6589C99.8416 11.6604 99.8282 11.6635 99.8166 11.6647C100.312 11.9756 100.982 11.933 101.179 11.7611C102.154 10.9107 101.986 9.32589 101.421 8.13556C100.819 6.86705 99.6469 6.69062 98.0655 6.95931C98.1904 4.18381 96.5939 4.98649 96.4037 3.19979C96.2137 4.9852 94.617 4.18449 94.7419 6.95931C93.1607 6.69062 91.9885 6.86702 91.3863 8.13556C90.8212 9.32582 90.6539 10.9106 91.6283 11.7611C91.8253 11.9331 92.4954 11.9756 92.9908 11.6647C92.9792 11.6635 92.9658 11.6604 92.9537 11.6589C93.5349 11.2936 93.2728 10.3992 92.5919 10.3992C92.213 10.3992 91.8803 10.7149 91.9147 11.1374C91.4849 10.448 92.2456 9.17128 93.9337 9.75405C94.4063 9.91717 94.7138 10.3931 94.6486 10.8888C94.4659 12.28 93.413 14.0635 90.8563 14.4684C89.227 14.7264 87.4894 14.5941 85.6377 14.9398C82.8736 15.4558 80.4061 16.4866 78.6087 18.4105C75.9084 21.3009 73.8099 24.6287 70.8228 26.0863C67.8585 27.5327 65.4259 26.9317 63.9629 24.5627C62.9046 22.8492 63.5252 20.5741 65.3637 19.7518C65.7956 19.5587 66.2947 19.4191 66.8653 19.3343C68.1718 19.1401 69.1386 20.4629 69.0684 21.5182C69.0079 22.4277 67.8786 23.0997 66.9805 22.0521C67.4773 22.084 67.838 21.68 67.8179 21.2344C67.7984 20.7998 67.4302 20.4632 66.9955 20.4828C66.1794 20.5195 65.9512 21.6314 66.6999 21.9809C66.5312 22.5377 66.7919 22.9317 67.2734 23.0274C69.9836 23.5657 72.7172 21.2036 71.3461 18.2467C74.6476 18.4707 74.7752 17.3939 73.4761 15.7324C75.7819 14.4217 76.1734 12.7403 75.0047 10.7568C74.3927 12.0261 73.4956 13.2241 72.324 14.3537C71.9398 14.7239 71.4772 15.0059 70.9768 15.1911C68.1786 16.2266 65.8853 17.5017 64.2799 19.1032C63.2123 20.168 62.6397 21.6545 62.7768 23.156C63.0077 25.6838 64.5843 27.3814 68.1463 27.3635C73.4761 27.3367 77.6359 20.5084 78.0087 19.8747C78.332 21.8944 80.8987 22.5291 82.1197 20.8814C82.2158 22.8058 83.206 24.0849 85.1819 24.4763C87.3263 24.9152 88.9275 24.1073 90.5376 22.5704C91.6517 21.507 92.9245 21.5267 94.2614 21.9823C94.6949 20.3855 93.2315 19.0991 91.7011 19.609C91.7564 19.0535 91.4065 18.5557 90.9297 18.4344C90.3696 18.292 89.7306 18.6939 89.6216 19.352C88.1363 17.9194 86.9425 18.2982 85.9434 19.8865C85.3706 19.7286 84.8571 20.18 84.8819 20.7308C84.9028 21.1944 85.2956 21.5533 85.7591 21.5325C86.5311 21.4977 86.8547 20.5196 86.2382 20.035C87.2542 19.8819 88.0479 20.0954 88.5638 20.7667C89.055 22.439 88.5129 23.7315 86.6274 23.8856C83.9591 24.1037 82.3963 22.2577 82.5919 19.4932C82.8128 16.3685 86.1656 14.3628 90.9276 15.4642C95.0153 16.4097 96.4716 19.6838 95.676 23.0403C95.0221 25.7988 91.68 26.7963 90.3959 24.4868C90.8993 24.8171 91.5591 24.4357 91.5323 23.8401C91.514 23.4344 91.1704 23.1204 90.7647 23.1386C90.2368 23.1624 89.8928 23.7274 90.1482 24.2135C89.6842 27.0654 93.1805 29.3536 95.3703 27.1547C94.0209 29.6698 94.5695 32.1247 96.4036 34.5387C98.2378 32.1247 98.7863 29.6699 97.437 27.1547C99.6268 29.3535 103.123 27.0654 102.659 24.2135C102.914 23.7277 102.571 23.1624 102.043 23.1386C101.637 23.1204 101.293 23.4344 101.275 23.8401C101.248 24.4364 101.909 24.8166 102.411 24.4868C101.127 26.7963 97.7852 25.7987 97.1313 23.0403C96.3358 19.6839 97.7922 16.4097 101.88 15.4642C106.642 14.3628 109.995 16.3685 110.215 19.4932C110.411 22.2577 108.848 24.1037 106.18 23.8856C104.294 23.7314 103.752 22.439 104.244 20.7667C104.759 20.0954 105.553 19.8819 106.569 20.035C105.953 20.5195 106.276 21.4978 107.048 21.5325C107.512 21.5533 107.905 21.1944 107.925 20.7308C107.95 20.1814 107.438 19.7283 106.864 19.8865C105.865 18.2982 104.671 17.9194 103.186 19.352C103.077 18.6939 102.438 18.292 101.878 18.4344C101.401 18.5557 101.051 19.0535 101.106 19.609C99.5759 19.0991 98.1124 20.3854 98.5459 21.9823C99.8828 21.5268 101.156 21.507 102.27 22.5704C103.88 24.1073 105.481 24.9152 107.625 24.4763C109.601 24.0849 110.592 22.8057 110.688 20.8814C111.91 22.5306 114.476 21.8921 114.799 19.8747C115.171 20.5084 119.331 27.3367 124.661 27.3635C128.223 27.3814 129.8 25.6838 130.03 23.156C130.168 21.6544 129.595 20.168 128.528 19.1031C126.922 17.5016 124.629 16.2265 121.831 15.191Z" fill="#F0F0F0"/>
</svg>
